<svg width="220" height="75" viewBox="0 0 220 75" fill="none" xmlns="http://www.w3.org/2000/svg">
<path d="M67.384 40.888C64.6 40.312 61.288 40.12 61.288 37.384C61.288 35.368 63.016 33.976 65.416 33.976C67.624 33.976 69.016 34.936 69.688 35.992C69.976 36.472 70.552 36.664 71.08 36.52L72.808 36.04C73.576 35.848 73.96 34.936 73.576 34.216C72.232 31.576 69.208 30.088 65.848 30.088C60.52 30.088 56.824 33.256 56.824 37.72C56.824 41.272 58.84 43.48 63.352 44.536C66.76 45.304 70.84 45.256 70.84 48.136C70.84 50.296 69.064 51.592 65.896 51.592C62.824 51.592 61.336 50.536 60.664 49.48C60.328 49 59.752 48.76 59.176 48.952L57.256 49.624C56.536 49.864 56.152 50.728 56.536 51.448C58.072 54.136 61.624 55.576 65.8 55.576C72.232 55.576 75.352 51.976 75.352 47.704C75.352 44.008 73.336 42.136 67.384 40.888ZM99.358 31.96V34.072C97.582 31.816 94.75 30.088 90.526 30.088C82.942 30.088 78.43 36.472 78.43 42.856C78.43 49.192 82.942 55.576 90.526 55.576C94.75 55.576 97.582 53.848 99.358 51.592V53.704C99.358 54.424 99.934 55 100.654 55H102.478C103.198 55 103.774 54.424 103.774 53.704V31.96C103.774 31.24 103.198 30.664 102.478 30.664H100.654C99.934 30.664 99.358 31.24 99.358 31.96ZM90.958 51.448C85.918 51.448 82.894 47.752 82.894 42.856C82.894 37.912 85.918 34.216 90.958 34.216C96.334 34.216 99.358 38.008 99.358 42.856C99.358 47.656 96.334 51.448 90.958 51.448ZM121.867 30.088C118.171 30.088 115.819 31.912 114.379 34.072V22.696C114.379 21.976 113.803 21.4 113.083 21.4H111.259C110.587 21.4 110.011 21.976 110.011 22.696V53.704C110.011 54.424 110.587 55 111.259 55H113.083C113.803 55 114.379 54.424 114.379 53.704V41.032C114.379 38.2 116.203 34.216 120.811 34.216C125.371 34.216 126.859 37.624 126.859 41.032V53.704C126.859 54.424 127.435 55 128.107 55H129.931C130.651 55 131.227 54.424 131.227 53.704V39.784C131.227 34.6 127.339 30.088 121.867 30.088ZM153.005 31.768L146.765 48.232L139.709 31.72C139.469 31.096 138.845 30.664 138.173 30.664H136.061C135.293 30.664 134.765 31.48 135.053 32.152C137.309 37.144 144.269 52.888 144.605 53.752C142.733 58.84 141.005 60.184 138.365 60.28C137.789 60.28 137.357 60.76 137.357 61.336V63.16C137.357 63.736 137.789 64.216 138.317 64.216C138.701 64.264 139.037 64.264 139.517 64.264C144.029 64.264 146.333 60.664 148.637 55C149.933 51.88 155.837 36.904 157.709 32.152C157.997 31.432 157.469 30.664 156.749 30.664H154.589C153.917 30.664 153.245 31.096 153.005 31.768ZM175.57 30.088C171.346 30.088 168.562 31.816 166.738 34.072V31.96C166.738 31.24 166.162 30.664 165.442 30.664H163.618C162.946 30.664 162.37 31.24 162.37 31.96V62.968C162.37 63.688 162.946 64.264 163.618 64.264H165.442C166.162 64.264 166.738 63.688 166.738 62.968V51.592C168.562 53.848 171.346 55.576 175.57 55.576C183.154 55.576 187.714 49.192 187.714 42.856C187.714 36.472 183.154 30.088 175.57 30.088ZM175.138 51.448C169.81 51.448 166.738 47.656 166.738 42.856C166.738 38.008 169.81 34.216 175.138 34.216C180.178 34.216 183.202 37.912 183.202 42.856C183.202 47.752 180.178 51.448 175.138 51.448ZM211.999 31.96V34.072C210.223 31.816 207.391 30.088 203.167 30.088C195.583 30.088 191.071 36.472 191.071 42.856C191.071 49.192 195.583 55.576 203.167 55.576C207.391 55.576 210.223 53.848 211.999 51.592V53.704C211.999 54.424 212.575 55 213.295 55H215.119C215.839 55 216.415 54.424 216.415 53.704V31.96C216.415 31.24 215.839 30.664 215.119 30.664H213.295C212.575 30.664 211.999 31.24 211.999 31.96ZM203.599 51.448C198.559 51.448 195.535 47.752 195.535 42.856C195.535 37.912 198.559 34.216 203.599 34.216C208.975 34.216 211.999 38.008 211.999 42.856C211.999 47.656 208.975 51.448 203.599 51.448Z" fill="#0B246E"/>
<rect x="3.5" y="24.5" width="38" height="38" fill="#0B246E" stroke="#0B246E" stroke-width="7"/>
<rect x="26.5" y="24.5" width="15" height="38" fill="#36E7F7" stroke="#36E7F7" stroke-width="7"/>
</svg>
