<svg width="780" height="739" viewBox="0 0 780 739" fill="none" xmlns="http://www.w3.org/2000/svg">
<path d="M344.474 739C534.721 739 688.948 680.032 688.948 607.291C688.948 534.55 534.721 475.582 344.474 475.582C154.226 475.582 0 534.55 0 607.291C0 680.032 154.226 739 344.474 739Z" fill="#EBF0FF"/>
<path d="M689.718 288.828L445.789 147.06V138.698L689.718 280.466V288.828Z" fill="#EBF0FF"/>
<path d="M428.721 252.925L184.809 111.157V102.795L428.721 244.563V252.925Z" fill="#EBF0FF"/>
<path d="M775.003 160.442L513.594 8.36161V0L775.003 152.062V160.442Z" fill="#EBF0FF"/>
<path d="M606.635 79.8958L513.594 25.7892V17.4276L606.635 71.5342V79.8958Z" fill="#EBF0FF"/>
<path d="M388.657 95.7702L295.616 41.6635V33.3019L388.657 87.4086V95.7702Z" fill="#EBF0FF"/>
<path d="M245.505 90.6593L170.124 46.7564V38.3948L245.505 82.2977V90.6593Z" fill="#EBF0FF"/>
<path d="M642.436 209.781L337.471 32.2365V23.8748L642.436 201.419V209.781Z" fill="#EBF0FF"/>
<path d="M499.714 447.987L508.669 630.082C508.702 630.776 508.9 631.451 509.246 632.051C509.592 632.652 510.076 633.159 510.657 633.532C511.304 633.947 512.049 634.181 512.816 634.208C513.582 634.236 514.342 634.056 515.016 633.687C515.69 633.319 516.254 632.775 516.65 632.113C517.046 631.45 517.258 630.693 517.266 629.92L518.806 449.143C518.814 448.081 518.436 447.054 517.743 446.255C517.05 445.456 516.09 444.941 515.045 444.809L504.478 443.472C503.861 443.404 503.236 443.471 502.646 443.669C502.057 443.868 501.517 444.193 501.064 444.622C500.611 445.051 500.256 445.574 500.023 446.155C499.79 446.736 499.685 447.361 499.714 447.987Z" fill="#36E7F7"/>
<path d="M517.248 444.827L513.415 631.798C513.415 635.518 521.439 634.67 524.43 632.466L525.003 632.069C525.536 631.663 525.973 631.144 526.283 630.547C526.592 629.951 526.767 629.292 526.794 628.62L535.91 447.391C535.966 446.326 535.649 445.276 535.014 444.424C534.378 443.571 533.465 442.972 532.435 442.732L522.71 440.42C522.056 440.281 521.379 440.291 520.729 440.447C520.078 440.603 519.47 440.902 518.948 441.324C518.426 441.745 518.003 442.277 517.709 442.883C517.415 443.489 517.257 444.152 517.248 444.827Z" fill="#88F7FF"/>
<path d="M610.002 395.831L616.611 398.359V406.36H610.002V395.831Z" fill="#0B246E"/>
<path d="M417.885 497.145L123.29 324.73L293.431 233.981C299.112 230.95 305.464 229.427 311.89 229.553C318.316 229.679 324.604 231.451 330.164 234.703L612.76 400.165C613.937 400.855 614.91 401.85 615.578 403.047C616.245 404.244 616.582 405.599 616.555 406.972C616.528 408.345 616.136 409.686 615.422 410.854C614.707 412.023 613.695 412.978 612.491 413.62L454.618 497.868C448.938 500.901 442.585 502.427 436.159 502.301C429.732 502.174 423.444 500.4 417.885 497.145Z" fill="#0B246E"/>
<path d="M417.867 488.224L123.272 315.791L293.413 225.041C299.095 222.01 305.448 220.488 311.875 220.617C318.301 220.747 324.589 222.524 330.146 225.781L612.76 391.226C613.937 391.916 614.91 392.911 615.578 394.108C616.245 395.305 616.582 396.66 616.555 398.033C616.528 399.406 616.136 400.746 615.422 401.915C614.707 403.084 613.695 404.039 612.491 404.68L454.546 488.946C448.872 491.967 442.53 493.485 436.114 493.359C429.699 493.233 423.421 491.466 417.867 488.224Z" fill="#88F7FF"/>
<path d="M434.452 374.575L434.434 378.385L383.947 407.967L383.964 404.138L434.452 374.575Z" fill="#D7ECFA"/>
<path d="M383.965 404.138L383.947 407.967L272.226 342.916L272.244 339.106L383.965 404.138Z" fill="#D7ECFA"/>
<path d="M434.452 374.575L383.964 404.138L272.244 339.106L322.714 309.524L434.452 374.575Z" fill="#EEF8FC"/>
<path d="M329.537 316.964V319.204L322.552 323.303V321.064L329.537 316.964Z" fill="#D7ECFA"/>
<path d="M322.552 321.064V323.303L315.657 319.294V317.055L322.552 321.064Z" fill="#D7ECFA"/>
<path d="M329.537 316.965L322.552 321.064L315.657 317.055L322.66 312.955L329.537 316.965Z" fill="white"/>
<path d="M338.384 322.112L338.367 324.351L331.382 328.45L331.4 326.211L338.384 322.112Z" fill="#D7ECFA"/>
<path d="M331.4 326.211L331.382 328.45L324.505 324.441V322.202L331.4 326.211Z" fill="#D7ECFA"/>
<path d="M338.384 322.112L331.4 326.211L324.505 322.202L331.489 318.102L338.384 322.112Z" fill="white"/>
<path d="M347.196 327.24V329.48L340.211 333.579V331.34L347.196 327.24Z" fill="#D7ECFA"/>
<path d="M340.211 331.34V333.579L333.316 329.57L333.334 327.331L340.211 331.34Z" fill="#D7ECFA"/>
<path d="M347.196 327.24L340.212 331.34L333.334 327.331L340.319 323.231L347.196 327.24Z" fill="white"/>
<path d="M356.025 332.388V334.627L349.041 338.708V336.469L356.025 332.388Z" fill="#D7ECFA"/>
<path d="M349.041 336.469V338.708L342.146 334.699V332.46L349.041 336.469Z" fill="#D7ECFA"/>
<path d="M356.025 332.387L349.041 336.469L342.146 332.46L349.13 328.378L356.025 332.387Z" fill="white"/>
<path d="M364.855 337.534V339.774L357.87 343.855V341.616L364.855 337.534Z" fill="#D7ECFA"/>
<path d="M357.87 341.616V343.855L350.975 339.846L350.993 337.607L357.87 341.616Z" fill="#D7ECFA"/>
<path d="M364.856 337.534L357.871 341.616L350.994 337.607L357.979 333.525L364.856 337.534Z" fill="white"/>
<path d="M373.684 342.663V344.903L366.7 349.002V346.763L373.684 342.663Z" fill="#D7ECFA"/>
<path d="M366.7 346.763V349.002L359.804 344.993V342.754L366.7 346.763Z" fill="#D7ECFA"/>
<path d="M373.684 342.663L366.7 346.763L359.804 342.754L366.789 338.654L373.684 342.663Z" fill="white"/>
<path d="M382.514 347.81L382.496 350.032L375.511 354.131L375.529 351.892L382.514 347.81Z" fill="#D7ECFA"/>
<path d="M375.529 351.892L375.511 354.131L368.634 350.122V347.883L375.529 351.892Z" fill="#D7ECFA"/>
<path d="M382.514 347.81L375.529 351.892L368.634 347.883L375.619 343.783L382.514 347.81Z" fill="white"/>
<path d="M391.343 352.957V355.197L384.358 359.278V357.039L391.343 352.957Z" fill="#D7ECFA"/>
<path d="M384.358 357.039V359.278L377.445 355.251V353.012L384.358 357.039Z" fill="#D7ECFA"/>
<path d="M391.343 352.957L384.358 357.039L377.445 353.012L384.448 348.93L391.343 352.957Z" fill="white"/>
<path d="M400.173 358.086L400.155 360.326L393.17 364.407L393.188 362.168L400.173 358.086Z" fill="#D7ECFA"/>
<path d="M393.188 362.168L393.17 364.407L386.293 360.398V358.159L393.188 362.168Z" fill="#D7ECFA"/>
<path d="M400.173 358.086L393.188 362.168L386.293 358.159L393.277 354.077L400.173 358.086Z" fill="white"/>
<path d="M408.984 363.215V365.455L401.999 369.554V367.315L408.984 363.215Z" fill="#D7ECFA"/>
<path d="M401.999 367.315V369.554L395.104 365.545L395.122 363.306L401.999 367.315Z" fill="#D7ECFA"/>
<path d="M408.985 363.215L402 367.315L395.123 363.306L402.108 359.206L408.985 363.215Z" fill="white"/>
<path d="M426.643 373.509V375.749L419.658 379.83V377.591L426.643 373.509Z" fill="#D7ECFA"/>
<path d="M419.658 377.591V379.83L403.934 370.674V368.434L419.658 377.591Z" fill="#D7ECFA"/>
<path d="M426.643 373.509L419.658 377.591L403.934 368.434L410.918 364.353L426.643 373.509Z" fill="white"/>
<path d="M329.483 327.331L329.466 329.57L322.481 333.652L322.499 331.412L329.483 327.331Z" fill="#D7ECFA"/>
<path d="M322.499 331.412L322.481 333.652L306.756 324.495V322.256L322.499 331.412Z" fill="#D7ECFA"/>
<path d="M329.483 327.331L322.499 331.412L306.756 322.256L313.741 318.174L329.483 327.331Z" fill="white"/>
<path d="M338.295 332.46V334.699L331.31 338.799V336.559L338.295 332.46Z" fill="#D7ECFA"/>
<path d="M331.31 336.559V338.799L324.415 334.789L324.433 332.55L331.31 336.559Z" fill="#D7ECFA"/>
<path d="M338.296 332.46L331.311 336.559L324.434 332.55L331.401 328.45L338.296 332.46Z" fill="white"/>
<path d="M347.124 337.607L347.106 339.846L340.122 343.928L340.14 341.688L347.124 337.607Z" fill="#D7ECFA"/>
<path d="M340.14 341.688L340.122 343.928L333.244 339.918V337.679L340.14 341.688Z" fill="#D7ECFA"/>
<path d="M347.124 337.607L340.14 341.688L333.244 337.679L340.229 333.597L347.124 337.607Z" fill="white"/>
<path d="M355.954 342.754V344.993L348.969 349.075V346.835L355.954 342.754Z" fill="#D7ECFA"/>
<path d="M348.969 346.835V349.075L342.074 345.065L342.092 342.826L348.969 346.835Z" fill="#D7ECFA"/>
<path d="M355.955 342.754L348.97 346.835L342.093 342.826L349.078 338.726L355.955 342.754Z" fill="white"/>
<path d="M364.783 347.883V350.122L357.798 354.222V351.982L364.783 347.883Z" fill="#D7ECFA"/>
<path d="M357.798 351.982V354.222L350.903 350.194V347.973L357.798 351.982Z" fill="#D7ECFA"/>
<path d="M364.783 347.883L357.799 351.982L350.903 347.973L357.888 343.873L364.783 347.883Z" fill="white"/>
<path d="M373.613 353.012L373.595 355.251L366.61 359.35L366.628 357.111L373.613 353.012Z" fill="#D7ECFA"/>
<path d="M366.628 357.111L366.61 359.35L359.715 355.341L359.733 353.102L366.628 357.111Z" fill="#D7ECFA"/>
<path d="M373.614 353.012L366.629 357.111L359.734 353.102L366.719 349.002L373.614 353.012Z" fill="white"/>
<path d="M382.442 358.159V360.398L375.457 364.497V362.258L382.442 358.159Z" fill="#D7ECFA"/>
<path d="M375.457 362.258V364.497L368.544 360.47V358.231L375.457 362.258Z" fill="#D7ECFA"/>
<path d="M382.442 358.159L375.457 362.258L368.544 358.231L375.529 354.149L382.442 358.159Z" fill="white"/>
<path d="M391.272 363.306L391.254 365.545L384.269 369.626L384.287 367.387L391.272 363.306Z" fill="#D7ECFA"/>
<path d="M384.287 367.387L384.269 369.626L377.392 365.617V363.378L384.287 367.387Z" fill="#D7ECFA"/>
<path d="M391.272 363.306L384.287 367.387L377.392 363.378L384.376 359.296L391.272 363.306Z" fill="white"/>
<path d="M400.083 368.434V370.674L393.098 374.773V372.534L400.083 368.434Z" fill="#D7ECFA"/>
<path d="M393.098 372.534V374.773L386.203 370.764L386.221 368.525L393.098 372.534Z" fill="#D7ECFA"/>
<path d="M400.084 368.434L393.099 372.534L386.222 368.525L393.189 364.425L400.084 368.434Z" fill="white"/>
<path d="M408.931 373.581L408.913 375.821L401.946 379.92V377.681L408.931 373.581Z" fill="#D7ECFA"/>
<path d="M401.946 377.681V379.92L395.033 375.893V373.654L401.946 377.681Z" fill="#D7ECFA"/>
<path d="M408.931 373.581L401.946 377.681L395.033 373.654L402.017 369.554L408.931 373.581Z" fill="white"/>
<path d="M417.742 378.728V380.95L410.757 385.049V382.81L417.742 378.728Z" fill="#D7ECFA"/>
<path d="M410.757 382.81V385.049L403.862 381.04L403.88 378.801L410.757 382.81Z" fill="#D7ECFA"/>
<path d="M417.743 378.728L410.758 382.81L403.881 378.801L410.866 374.701L417.743 378.728Z" fill="white"/>
<path d="M320.582 332.55L320.564 334.789L313.58 338.871L313.598 336.631L320.582 332.55Z" fill="#D7ECFA"/>
<path d="M313.598 336.631L313.58 338.871L297.855 329.715V327.475L313.598 336.631Z" fill="#D7ECFA"/>
<path d="M320.582 332.55L313.598 336.631L297.855 327.475L304.84 323.394L320.582 332.55Z" fill="white"/>
<path d="M329.394 337.679V339.918L322.409 344.018V341.778L329.394 337.679Z" fill="#D7ECFA"/>
<path d="M322.409 341.778V344.018L315.514 340.009L315.532 337.769L322.409 341.778Z" fill="#D7ECFA"/>
<path d="M329.395 337.679L322.41 341.778L315.533 337.769L322.5 333.67L329.395 337.679Z" fill="white"/>
<path d="M338.223 342.808L338.205 345.065L331.221 349.147L331.238 346.907L338.223 342.808Z" fill="#D7ECFA"/>
<path d="M331.238 346.907L331.221 349.147L324.343 345.138V342.898L331.238 346.907Z" fill="#D7ECFA"/>
<path d="M338.223 342.808L331.239 346.907L324.343 342.898L331.328 338.799L338.223 342.808Z" fill="white"/>
<path d="M347.053 347.973V350.194L340.068 354.294V352.054L347.053 347.973Z" fill="#D7ECFA"/>
<path d="M340.068 352.054V354.294L333.173 350.285L333.191 348.045L340.068 352.054Z" fill="#D7ECFA"/>
<path d="M347.053 347.973L340.068 352.054L333.191 348.045L340.176 343.946L347.053 347.973Z" fill="white"/>
<path d="M355.882 353.102V355.341L348.897 359.441V357.183L355.882 353.102Z" fill="#D7ECFA"/>
<path d="M348.897 357.183V359.441L342.002 355.414V353.174L348.897 357.183Z" fill="#D7ECFA"/>
<path d="M355.882 353.102L348.897 357.183L342.002 353.174L348.987 349.093L355.882 353.102Z" fill="white"/>
<path d="M364.694 358.231V360.47L357.709 364.57L357.727 362.33L364.694 358.231Z" fill="#D7ECFA"/>
<path d="M357.727 362.33L357.709 364.57L350.814 360.56L350.832 358.321L357.727 362.33Z" fill="#D7ECFA"/>
<path d="M364.695 358.231L357.728 362.33L350.833 358.321L357.818 354.222L364.695 358.231Z" fill="white"/>
<path d="M373.541 363.378V365.617L366.556 369.717V367.477L373.541 363.378Z" fill="#D7ECFA"/>
<path d="M366.556 367.477V369.717L359.643 365.689V363.45L366.556 367.477Z" fill="#D7ECFA"/>
<path d="M373.541 363.378L366.556 367.477L359.643 363.45L366.628 359.369L373.541 363.378Z" fill="white"/>
<path d="M382.371 368.525L382.353 370.764L375.368 374.846L375.386 372.606L382.371 368.525Z" fill="#D7ECFA"/>
<path d="M375.386 372.606L375.368 374.846L368.491 370.836V368.597L375.386 372.606Z" fill="#D7ECFA"/>
<path d="M382.371 368.525L375.386 372.606L368.491 368.597L375.475 364.516L382.371 368.525Z" fill="white"/>
<path d="M391.182 373.654V375.893L384.197 379.993V377.753L391.182 373.654Z" fill="#D7ECFA"/>
<path d="M384.197 377.753V379.993L377.302 375.983L377.32 373.726L384.197 377.753Z" fill="#D7ECFA"/>
<path d="M391.183 373.654L384.198 377.753L377.321 373.726L384.288 369.644L391.183 373.654Z" fill="white"/>
<path d="M408.841 383.93V386.169L401.856 390.269V388.029L408.841 383.93Z" fill="#D7ECFA"/>
<path d="M401.856 388.029V390.269L386.131 381.112V378.873L401.856 388.029Z" fill="#D7ECFA"/>
<path d="M408.841 383.93L401.856 388.029L386.131 378.873L393.116 374.773L408.841 383.93Z" fill="white"/>
<path d="M320.475 342.916V345.156L313.49 349.237V346.998L320.475 342.916Z" fill="#D7ECFA"/>
<path d="M313.49 346.998V349.237L288.936 334.952V332.713L313.49 346.998Z" fill="#D7ECFA"/>
<path d="M320.475 342.916L313.49 346.998L288.936 332.713L295.921 328.613L320.475 342.916Z" fill="white"/>
<path d="M329.304 348.045L329.286 350.285L322.302 354.384L322.319 352.145L329.304 348.045Z" fill="#D7ECFA"/>
<path d="M322.32 352.145L322.302 354.384L315.424 350.357V348.117L322.32 352.145Z" fill="#D7ECFA"/>
<path d="M329.304 348.045L322.32 352.145L315.424 348.117L322.409 344.036L329.304 348.045Z" fill="white"/>
<path d="M338.134 353.192V355.432L331.149 359.531V357.292L338.134 353.192Z" fill="#D7ECFA"/>
<path d="M331.149 357.292V359.531L324.254 355.504L324.272 353.264L331.149 357.292Z" fill="#D7ECFA"/>
<path d="M338.135 353.192L331.15 357.292L324.273 353.264L331.257 349.183L338.135 353.192Z" fill="white"/>
<path d="M346.963 358.321L346.945 360.56L339.961 364.66L339.978 362.421L346.963 358.321Z" fill="#D7ECFA"/>
<path d="M339.978 362.421L339.961 364.66L333.083 360.651V358.411L339.978 362.421Z" fill="#D7ECFA"/>
<path d="M346.963 358.321L339.978 362.421L333.083 358.411L340.068 354.312L346.963 358.321Z" fill="white"/>
<path d="M355.775 363.468V365.707L348.79 369.789V367.55L355.775 363.468Z" fill="#D7ECFA"/>
<path d="M348.79 367.55V369.789L341.895 365.78L341.913 363.54L348.79 367.55Z" fill="#D7ECFA"/>
<path d="M355.776 363.468L348.791 367.55L341.914 363.54L348.898 359.459L355.776 363.468Z" fill="white"/>
<path d="M364.622 368.615V370.855L357.637 374.936V372.697L364.622 368.615Z" fill="#D7ECFA"/>
<path d="M357.637 372.697V374.936L350.724 370.927V368.687L357.637 372.697Z" fill="#D7ECFA"/>
<path d="M364.622 368.615L357.637 372.697L350.724 368.687L357.709 364.588L364.622 368.615Z" fill="white"/>
<path d="M373.434 373.744V375.983L366.449 380.083L366.467 377.844L373.434 373.744Z" fill="#D7ECFA"/>
<path d="M366.467 377.844L366.449 380.083L359.554 376.074L359.572 373.834L366.467 377.844Z" fill="#D7ECFA"/>
<path d="M373.435 373.744L366.468 377.844L359.573 373.834L366.557 369.735L373.435 373.744Z" fill="white"/>
<path d="M382.263 378.873V381.112L375.278 385.212V382.972L382.263 378.873Z" fill="#D7ECFA"/>
<path d="M375.278 382.972V385.212L368.383 381.203V378.963L375.278 382.972Z" fill="#D7ECFA"/>
<path d="M382.263 378.873L375.278 382.972L368.383 378.963L375.368 374.864L382.263 378.873Z" fill="white"/>
<path d="M399.922 389.167V391.406L392.937 395.488V393.248L399.922 389.167Z" fill="#D7ECFA"/>
<path d="M392.937 393.248V395.488L377.213 386.332V384.092L392.937 393.248Z" fill="#D7ECFA"/>
<path d="M399.922 389.167L392.937 393.248L377.213 384.092L384.197 380.011L399.922 389.167Z" fill="white"/>
<path d="M293.915 337.841L293.897 340.081L286.93 344.18V341.941L293.915 337.841Z" fill="#D7ECFA"/>
<path d="M286.93 341.941V344.18L280.035 340.171V337.932L286.93 341.941Z" fill="#D7ECFA"/>
<path d="M293.915 337.841L286.93 341.941L280.035 337.932L287.02 333.832L293.915 337.841Z" fill="white"/>
<path d="M302.744 342.988V345.228L295.76 349.327L295.777 347.088L302.744 342.988Z" fill="#D7ECFA"/>
<path d="M295.777 347.088L295.76 349.327L288.864 345.318L288.882 343.079L295.777 347.088Z" fill="#D7ECFA"/>
<path d="M302.745 342.988L295.778 347.088L288.883 343.079L295.867 338.979L302.745 342.988Z" fill="white"/>
<path d="M311.574 348.117V350.357L304.589 354.456V352.217L311.574 348.117Z" fill="#D7ECFA"/>
<path d="M304.589 352.217V354.456L297.694 350.447V348.208L304.589 352.217Z" fill="#D7ECFA"/>
<path d="M311.574 348.117L304.589 352.217L297.694 348.208L304.679 344.108L311.574 348.117Z" fill="white"/>
<path d="M355.721 373.834V376.074L348.736 380.155V377.916L355.721 373.834Z" fill="#D7ECFA"/>
<path d="M348.736 377.916V380.155L306.523 355.576V353.337L348.736 377.916Z" fill="#D7ECFA"/>
<path d="M355.721 373.834L348.736 377.916L306.523 353.337L313.508 349.255L355.721 373.834Z" fill="white"/>
<path d="M364.533 378.963V381.203L357.548 385.302L357.566 383.063L364.533 378.963Z" fill="#D7ECFA"/>
<path d="M357.566 383.063L357.548 385.302L350.653 381.293L350.671 379.035L357.566 383.063Z" fill="#D7ECFA"/>
<path d="M364.534 378.963L357.567 383.063L350.672 379.035L357.656 374.954L364.534 378.963Z" fill="white"/>
<path d="M373.362 384.092V386.332L366.377 390.431V388.192L373.362 384.092Z" fill="#D7ECFA"/>
<path d="M366.377 388.192V390.431L359.482 386.422V384.182L366.377 388.192Z" fill="#D7ECFA"/>
<path d="M373.362 384.092L366.377 388.192L359.482 384.182L366.467 380.083L373.362 384.092Z" fill="white"/>
<path d="M391.021 394.386V396.626L384.036 400.707V398.468L391.021 394.386Z" fill="#D7ECFA"/>
<path d="M384.036 398.468V400.707L368.311 391.551V389.311L384.036 398.468Z" fill="#D7ECFA"/>
<path d="M391.021 394.386L384.036 398.468L368.311 389.311L375.296 385.23L391.021 394.386Z" fill="white"/>
<path d="M459.794 439.066C472.959 439.066 483.632 432.856 483.632 425.196C483.632 417.536 472.959 411.326 459.794 411.326C446.629 411.326 435.956 417.536 435.956 425.196C435.956 432.856 446.629 439.066 459.794 439.066Z" fill="#36E7F7"/>
<path d="M483.632 385.013H435.974V425.196H483.632V385.013Z" fill="#36E7F7"/>
<path d="M459.794 398.883C472.959 398.883 483.632 392.673 483.632 385.013C483.632 377.353 472.959 371.143 459.794 371.143C446.629 371.143 435.956 377.353 435.956 385.013C435.956 392.673 446.629 398.883 459.794 398.883Z" fill="white"/>
<path d="M477.918 387.993C476.746 389.531 475.23 390.768 473.495 391.605C469.267 393.503 464.69 394.484 460.062 394.484C455.434 394.484 450.858 393.503 446.63 391.605C444.897 390.773 443.386 389.535 442.224 387.993C439.771 384.526 441.239 380.48 446.63 377.699C450.858 375.801 455.434 374.82 460.062 374.82C464.69 374.82 469.267 375.801 473.495 377.699C478.886 380.48 480.354 384.526 477.918 387.993Z" fill="#EBEBEB"/>
<path d="M477.918 387.993C476.745 389.531 475.23 390.768 473.495 391.605C469.267 393.503 464.69 394.484 460.062 394.484C455.434 394.484 450.858 393.503 446.63 391.605C444.897 390.773 443.386 389.535 442.224 387.993C443.386 386.452 444.897 385.213 446.63 384.381C450.858 382.483 455.434 381.502 460.062 381.502C464.69 381.502 469.267 382.483 473.495 384.381C475.23 385.218 476.745 386.456 477.918 387.993Z" fill="#544438"/>
<path d="M281.88 313.768L223.745 279.924L305.95 232.066L364.085 265.91L281.88 313.768Z" fill="white"/>
<path d="M283.044 302.3L230.551 271.743L304.786 228.527L357.279 259.083L283.044 302.3Z" fill="#4661AD"/>
<path d="M400.889 200.173V209.058L421.36 220.616V210.395L400.889 200.173Z" fill="white"/>
<path d="M405.868 350.555L367.953 328.468C367.376 328.162 366.892 327.702 366.555 327.139C366.218 326.576 366.039 325.93 366.039 325.272C366.039 324.614 366.218 323.968 366.555 323.405C366.892 322.842 367.376 322.382 367.953 322.075L411.134 296.936L459.794 325.272L416.381 350.555C414.783 351.488 412.97 351.978 411.125 351.978C409.279 351.978 407.466 351.488 405.868 350.555Z" fill="#0B246E"/>
<path d="M344.116 124.593L338.581 128.368L343.954 266.723L519.952 375.261L524.985 371.866C525.371 371.602 525.688 371.247 525.907 370.832C526.125 370.416 526.239 369.952 526.239 369.482V232.229C526.239 231.463 526.038 230.711 525.658 230.048C525.277 229.385 524.73 228.836 524.071 228.454L345.727 124.593C345.486 124.439 345.207 124.357 344.922 124.357C344.636 124.357 344.357 124.439 344.116 124.593Z" fill="#0B246E"/>
<path d="M517.839 231.886C518.656 232.361 519.335 233.046 519.806 233.87C520.278 234.694 520.526 235.629 520.525 236.581V373.834C520.526 374.118 520.452 374.396 520.312 374.642C520.171 374.887 519.969 375.091 519.726 375.232C519.482 375.373 519.206 375.447 518.925 375.445C518.644 375.444 518.368 375.368 518.125 375.225L342.504 272.953C341.21 272.202 340.135 271.121 339.386 269.818C338.638 268.515 338.243 267.036 338.241 265.531V129.289C338.227 129.073 338.275 128.858 338.378 128.668C338.481 128.478 338.635 128.322 338.823 128.218C339.011 128.114 339.225 128.065 339.439 128.079C339.653 128.093 339.859 128.168 340.032 128.296" fill="#36E7F7"/>
<path d="M338.223 244.293V134.237L520.292 240.265L520.525 350.429L338.223 244.293Z" fill="white"/>
<path d="M368.777 169.11L357.924 162.789V160.062L368.777 166.401V169.11Z" fill="#36E7F7"/>
<path d="M463.412 224.192L375.726 173.156V170.429L463.412 221.483V224.192Z" fill="#88F7FF"/>
<path d="M500.108 245.575L471.059 228.653V225.944L500.108 242.866V245.575Z" fill="#88F7FF"/>
<path d="M368.777 177.996L357.924 171.675V168.966L368.777 175.287V177.996Z" fill="#36E7F7"/>
<path d="M463.412 233.096L375.726 182.041V179.332L463.412 230.387V233.096Z" fill="#88F7FF"/>
<path d="M500.108 254.478L471.059 237.556V234.829L500.108 251.751V254.478Z" fill="#88F7FF"/>
<path d="M368.777 186.899L357.924 180.56V177.851L368.777 184.19V186.899Z" fill="#36E7F7"/>
<path d="M445.574 231.597L375.726 190.926V188.217L445.574 228.888V231.597Z" fill="#88F7FF"/>
<path d="M500.108 263.364L452.719 235.768V233.041L500.108 260.655V263.364Z" fill="#88F7FF"/>
<path d="M368.777 195.784L357.924 189.464V186.755L368.777 193.075V195.784Z" fill="#36E7F7"/>
<path d="M476.092 258.271L375.726 199.83V197.121L476.092 255.544V258.271Z" fill="#88F7FF"/>
<path d="M500.108 272.249L471.059 255.345V252.618L500.108 269.54V272.249Z" fill="#88F7FF"/>
<path d="M368.777 204.688L357.924 198.367V195.64L368.777 201.979V204.688Z" fill="#36E7F7"/>
<path d="M463.412 259.77L375.726 208.733V206.006L463.412 257.061V259.77Z" fill="#88F7FF"/>
<path d="M500.108 281.152L471.059 264.23V261.521L500.108 278.443V281.152Z" fill="#88F7FF"/>
<path d="M368.777 213.573L357.924 207.252V204.543L368.777 210.864V213.573Z" fill="#36E7F7"/>
<path d="M438.141 253.991L375.726 217.619V214.91L438.141 251.264V253.991Z" fill="#88F7FF"/>
<path d="M500.109 290.056L495.13 287.148V284.421L500.109 287.329V290.056Z" fill="#88F7FF"/>
<path d="M487.858 282.904L471.059 273.134V270.425L487.858 280.195V282.904Z" fill="#88F7FF"/>
<path d="M368.777 222.477L357.924 216.156V213.429L368.777 219.768V222.477Z" fill="#36E7F7"/>
<path d="M450.015 269.775L375.726 226.522V223.795L450.015 267.048V269.775Z" fill="#88F7FF"/>
<path d="M500.108 298.941L457.179 273.947V271.238L500.108 296.232V298.941Z" fill="#88F7FF"/>
<path d="M368.777 231.362L357.924 225.041V222.332L368.777 228.653V231.362Z" fill="#36E7F7"/>
<path d="M417.635 259.824L375.726 235.407V232.698L417.635 257.097V259.824Z" fill="#88F7FF"/>
<path d="M500.108 307.844L425.819 264.574V261.865L500.108 305.117V307.844Z" fill="#88F7FF"/>
<path d="M368.777 240.265L357.924 233.944V231.217L368.777 237.556V240.265Z" fill="#36E7F7"/>
<path d="M463.412 295.365L375.726 244.311V241.602L463.412 292.638V295.365Z" fill="#88F7FF"/>
<path d="M500.108 316.73L471.059 299.808V297.099L500.108 314.021V316.73Z" fill="#88F7FF"/>
<path d="M580.308 201.184L440.845 121.162V51.6144L580.308 131.637V201.184Z" fill="#88F7FF"/>
<path d="M477.918 90.551V125.225L473.495 122.643V107.039L457.967 98.0096V113.631L453.526 111.049V76.3742L457.967 78.9567V94.2713L473.495 103.301V88.0046L477.918 90.551Z" fill="#0B246E"/>
<path d="M505.571 110.958L496.115 105.54V135.899L491.709 133.352V102.922L482.217 97.3956V93.0974L505.499 106.696L505.571 110.958Z" fill="#0B246E"/>
<path d="M541.121 127.375V162.049L537.271 159.792V135.122C537.271 134.761 537.271 134.364 537.271 133.966C537.271 133.569 537.271 133.136 537.271 132.72L527.492 148.071C527.152 148.667 526.615 148.739 525.898 148.324L525.271 147.963C524.51 147.482 523.949 146.737 523.695 145.868L513.612 118.778C513.612 119.735 513.738 120.584 513.738 121.379V146.048L509.851 143.791V109.152L513.129 111.067C513.456 111.239 513.758 111.458 514.024 111.717C514.305 112.037 514.519 112.412 514.651 112.819L524.591 139.366C524.788 139.89 524.967 140.45 525.128 141.01C525.289 141.569 525.45 142.129 525.612 142.689C525.883 141.936 526.225 141.21 526.633 140.522L536.393 125.478C536.572 125.171 536.769 125.045 536.984 125.081C537.304 125.157 537.608 125.292 537.88 125.478L541.121 127.375Z" fill="#0B246E"/>
<path d="M565.568 171.928V176.244L548.518 166.329V131.673L552.942 134.237V164.577L565.568 171.928Z" fill="#0B246E"/>
<path d="M278.136 192.028L170.124 131.185V61.6375L278.136 122.48V192.028Z" fill="#0B246E"/>
<path d="M209.937 128.693C210.213 128.87 210.436 129.12 210.581 129.415L212.372 132.648C211.102 133.62 209.52 134.084 207.931 133.948C205.676 133.673 203.514 132.882 201.609 131.637C199.433 130.37 197.459 128.781 195.752 126.923C194.002 125.041 192.497 122.941 191.275 120.674C190.036 118.391 189.074 115.966 188.409 113.451C187.735 110.918 187.392 108.307 187.388 105.685C187.324 103.45 187.689 101.224 188.463 99.1293C189.023 97.5558 190.072 96.2067 191.454 95.2826C192.838 94.4507 194.459 94.1135 196.057 94.3254C198.169 94.6023 200.197 95.3354 202.003 96.4745C204.093 97.6844 205.994 99.1998 207.644 100.971C209.282 102.707 210.724 104.621 211.943 106.678L210.492 108.213C210.395 108.331 210.263 108.413 210.116 108.448C209.911 108.449 209.71 108.386 209.543 108.267C209.174 108.003 208.863 107.665 208.629 107.274C208.271 106.769 207.805 106.154 207.232 105.468C206.578 104.664 205.872 103.904 205.119 103.193C204.155 102.314 203.098 101.545 201.967 100.899C200.729 100.131 199.343 99.6387 197.901 99.4544C196.785 99.3026 195.652 99.5658 194.713 100.195C193.728 100.943 193.001 101.986 192.636 103.175C192.096 104.841 191.842 106.587 191.884 108.34C191.883 110.393 192.141 112.438 192.654 114.426C193.146 116.309 193.855 118.127 194.767 119.844C195.632 121.46 196.697 122.959 197.937 124.304C199.091 125.551 200.418 126.622 201.877 127.483C202.621 127.924 203.393 128.316 204.188 128.657C204.8 128.904 205.436 129.086 206.086 129.199C206.626 129.289 207.176 129.289 207.716 129.199C208.237 129.117 208.744 128.959 209.22 128.729C209.338 128.702 209.461 128.702 209.578 128.729C209.694 128.692 209.816 128.68 209.937 128.693Z" fill="#36E7F7"/>
<path d="M232.18 120.06C232.079 120.231 231.92 120.359 231.733 120.422C231.531 120.443 231.328 120.392 231.159 120.277C230.819 120.039 230.532 119.732 230.318 119.374C229.995 118.923 229.601 118.399 229.118 117.785C228.56 117.145 227.962 116.542 227.327 115.979C226.611 115.279 225.81 114.672 224.945 114.173C224.238 113.733 223.463 113.415 222.652 113.234C222.103 113.114 221.53 113.158 221.005 113.36C220.559 113.572 220.203 113.937 220.002 114.39C219.766 114.962 219.65 115.576 219.662 116.196C219.665 117.121 219.873 118.034 220.27 118.868C220.714 119.763 221.254 120.605 221.882 121.379C222.586 122.236 223.34 123.05 224.139 123.817L226.736 126.327C227.613 127.194 228.527 128.133 229.333 129.036C230.171 129.973 230.926 130.982 231.589 132.052C232.26 133.131 232.795 134.29 233.183 135.501C233.608 136.788 233.82 138.136 233.81 139.493C233.84 140.825 233.609 142.151 233.13 143.393C232.754 144.372 232.067 145.198 231.177 145.741C230.209 146.269 229.092 146.454 228.007 146.265C226.496 146.006 225.048 145.454 223.745 144.64C222.77 144.064 221.842 143.412 220.969 142.689C220.066 141.95 219.216 141.148 218.426 140.287C216.815 138.574 215.425 136.662 214.289 134.598L215.56 132.792C215.707 132.672 215.89 132.607 216.08 132.607C216.269 132.607 216.452 132.672 216.599 132.792C217.006 133.093 217.347 133.474 217.602 133.912C217.978 134.49 218.444 135.158 219.017 135.917C219.636 136.735 220.306 137.513 221.023 138.246C221.869 139.102 222.827 139.837 223.87 140.432C224.627 140.903 225.456 141.245 226.324 141.443C226.921 141.582 227.547 141.532 228.115 141.299C228.623 141.028 229.022 140.587 229.243 140.052C229.53 139.342 229.664 138.579 229.637 137.813C229.644 136.836 229.442 135.869 229.046 134.978C228.608 134.069 228.067 133.215 227.434 132.431C226.735 131.576 225.981 130.768 225.178 130.011L222.599 127.555C221.703 126.706 220.808 125.749 220.002 124.9C219.16 123.967 218.404 122.957 217.745 121.884C217.065 120.753 216.529 119.54 216.151 118.273C215.728 116.899 215.523 115.467 215.542 114.029C215.521 112.918 215.735 111.816 216.169 110.796C216.526 109.939 217.156 109.227 217.96 108.773C218.87 108.321 219.897 108.169 220.897 108.34C222.31 108.56 223.663 109.07 224.873 109.839C226.562 110.835 228.116 112.05 229.494 113.451C230.869 114.906 232.071 116.518 233.076 118.254L232.18 120.06Z" fill="#36E7F7"/>
<path d="M254.729 133.19C254.63 133.356 254.479 133.484 254.299 133.551C254.091 133.574 253.882 133.523 253.708 133.406C253.371 133.164 253.085 132.857 252.866 132.504C252.544 132.052 252.15 131.528 251.666 130.932C251.142 130.291 250.573 129.687 249.965 129.126C249.245 128.431 248.445 127.825 247.583 127.32C246.873 126.886 246.099 126.569 245.29 126.381C244.741 126.26 244.168 126.304 243.643 126.508C243.19 126.709 242.831 127.077 242.64 127.537C242.396 128.106 242.279 128.723 242.299 129.343C242.294 130.27 242.503 131.185 242.908 132.016C243.338 132.914 243.873 133.757 244.502 134.526C245.207 135.388 245.967 136.202 246.777 136.964L249.356 139.475C250.251 140.341 251.147 141.28 251.953 142.183C252.79 143.121 253.545 144.13 254.209 145.199C254.879 146.281 255.42 147.439 255.821 148.649C256.24 149.936 256.446 151.285 256.43 152.64C256.46 153.973 256.229 155.299 255.749 156.541C255.375 157.525 254.689 158.356 253.797 158.907C252.824 159.42 251.71 159.597 250.627 159.412C249.121 159.153 247.68 158.601 246.383 157.787C245.402 157.212 244.468 156.559 243.589 155.837C242.69 155.099 241.84 154.303 241.046 153.453C239.453 151.722 238.07 149.806 236.926 147.746L238.18 146.03C238.304 145.91 238.459 145.829 238.628 145.795C238.838 145.776 239.048 145.834 239.219 145.958C239.626 146.251 239.967 146.626 240.222 147.06C240.616 147.637 241.081 148.306 241.637 149.064C242.261 149.878 242.931 150.656 243.643 151.394C244.496 152.254 245.46 152.995 246.508 153.597C247.261 154.059 248.084 154.394 248.944 154.59C249.541 154.738 250.169 154.688 250.735 154.446C251.251 154.186 251.653 153.742 251.863 153.2C252.157 152.498 252.298 151.74 252.275 150.978C252.279 150 252.071 149.032 251.666 148.143C251.245 147.223 250.71 146.361 250.072 145.579C249.373 144.724 248.619 143.915 247.815 143.159C246.974 142.364 246.024 141.551 245.219 140.703C244.413 139.854 243.428 138.897 242.622 138.048C241.775 137.118 241.02 136.108 240.365 135.032C239.683 133.901 239.147 132.688 238.771 131.42C238.358 130.038 238.153 128.601 238.162 127.158C238.141 126.048 238.355 124.946 238.789 123.925C239.146 123.069 239.776 122.357 240.58 121.902C241.49 121.451 242.517 121.299 243.517 121.469C244.928 121.697 246.28 122.207 247.493 122.968C249.192 123.95 250.747 125.166 252.114 126.58C253.492 128.026 254.694 129.633 255.696 131.366L254.729 133.19Z" fill="#36E7F7"/>
<path d="M717.997 415.624L610.002 354.781V285.234L717.997 346.077V415.624Z" fill="#4661AD"/>
<path d="M635.738 316.025C637.532 317.029 639.203 318.241 640.717 319.637C642.085 320.886 643.289 322.306 644.299 323.863C645.199 325.298 645.893 326.855 646.358 328.487C646.8 330.055 647.023 331.678 647.021 333.308C647.068 334.699 646.824 336.083 646.305 337.372C645.898 338.366 645.138 339.171 644.173 339.629C643.039 340.108 641.778 340.191 640.592 339.864C638.875 339.47 637.235 338.793 635.738 337.859L631.135 335.187V347.955L626.729 345.39V310.716L635.738 316.025ZM635.738 333.868C636.652 334.43 637.65 334.838 638.693 335.078C639.406 335.253 640.156 335.183 640.824 334.88C641.423 334.569 641.887 334.049 642.132 333.417C642.443 332.587 642.59 331.703 642.562 330.816C642.567 328.71 641.983 326.644 640.878 324.857C639.591 322.846 637.824 321.194 635.738 320.053L631.135 317.38V331.177L635.738 333.868Z" fill="#88F7FF"/>
<path d="M676.196 339.503V374.159L671.862 371.631V356.009L656.334 346.98V362.601L651.893 360.019V325.344L656.334 327.927V343.223L671.862 352.253V336.938L676.196 339.503Z" fill="#88F7FF"/>
<path d="M692.565 349.075C694.359 350.078 696.03 351.291 697.544 352.686C698.887 353.935 700.061 355.356 701.036 356.912C701.946 358.338 702.646 359.889 703.114 361.518C703.555 363.093 703.778 364.721 703.777 366.358C703.823 367.748 703.579 369.132 703.06 370.421C702.646 371.416 701.88 372.221 700.911 372.678C699.775 373.149 698.516 373.232 697.329 372.913C695.62 372.515 693.987 371.838 692.494 370.909L687.98 368.29V381.04L683.575 378.458V343.819L692.565 349.075ZM692.565 366.899C693.475 367.473 694.474 367.888 695.52 368.127C696.234 368.292 696.98 368.222 697.652 367.929C698.246 367.613 698.709 367.095 698.959 366.466C699.269 365.629 699.415 364.74 699.389 363.847C699.358 361.736 698.738 359.677 697.598 357.906C696.328 355.887 694.564 354.233 692.476 353.102L687.98 350.429V364.227L692.565 366.899Z" fill="#88F7FF"/>
<path d="M780 182.98L705.765 141.082V71.5342L780 113.433V182.98Z" fill="#0B246E"/>
<path d="M735.602 128.205C735.644 129.84 735.439 131.472 734.993 133.045C734.709 134.168 734.083 135.173 733.202 135.917C732.35 136.542 731.29 136.808 730.247 136.657C728.798 136.435 727.409 135.919 726.164 135.14C724.646 134.226 723.219 133.168 721.901 131.98L722.152 129.09C722.148 128.982 722.171 128.874 722.218 128.777C722.264 128.679 722.334 128.595 722.42 128.53C722.582 128.53 722.832 128.53 723.137 128.675C723.485 128.892 723.809 129.146 724.104 129.433C724.598 129.871 725.139 130.253 725.716 130.571C726.43 131.031 727.227 131.345 728.062 131.492C728.374 131.556 728.696 131.55 729.005 131.475C729.314 131.4 729.604 131.258 729.853 131.059C730.381 130.578 730.755 129.949 730.928 129.253C731.191 128.129 731.312 126.976 731.286 125.821V103.066L735.692 105.649L735.602 128.205Z" fill="white"/>
<path d="M758.061 124.359C757.957 124.52 757.807 124.646 757.631 124.72C757.423 124.743 757.214 124.692 757.04 124.575C756.704 124.333 756.418 124.026 756.198 123.672C755.876 123.221 755.482 122.697 754.998 122.083C754.47 121.445 753.901 120.842 753.297 120.277C752.577 119.582 751.777 118.976 750.915 118.471C750.209 118.029 749.434 117.712 748.622 117.532C748.073 117.401 747.498 117.445 746.975 117.658C746.522 117.86 746.163 118.228 745.972 118.688C745.722 119.256 745.599 119.873 745.614 120.494C745.617 121.421 745.831 122.336 746.241 123.167C746.667 124.061 747.202 124.898 747.834 125.659C748.535 126.53 749.295 127.351 750.109 128.115L752.688 130.625C753.583 131.492 754.479 132.431 755.285 133.334C756.123 134.271 756.878 135.281 757.541 136.35C758.211 137.432 758.752 138.59 759.153 139.8C759.571 141.081 759.777 142.424 759.762 143.773C759.794 145.111 759.563 146.443 759.082 147.692C758.712 148.674 758.024 149.501 757.129 150.039C756.158 150.558 755.045 150.742 753.96 150.563C752.454 150.303 751.012 149.751 749.715 148.938C748.734 148.362 747.8 147.71 746.921 146.987C746.022 146.244 745.172 145.441 744.378 144.585C743.568 143.726 742.815 142.815 742.121 141.858C741.462 140.911 740.864 139.921 740.33 138.897L741.584 137.091C741.709 136.976 741.865 136.901 742.032 136.874C742.24 136.848 742.45 136.899 742.623 137.018C743.029 137.319 743.371 137.7 743.626 138.138C744.02 138.716 744.485 139.384 745.041 140.125C745.66 140.949 746.33 141.733 747.046 142.472C747.893 143.327 748.851 144.063 749.894 144.658C750.651 145.129 751.48 145.471 752.348 145.669C752.946 145.813 753.575 145.756 754.139 145.506C754.654 145.254 755.056 144.815 755.267 144.278C755.554 143.568 755.688 142.805 755.661 142.039C755.667 141.062 755.466 140.095 755.07 139.204C754.638 138.295 754.103 137.441 753.476 136.657C752.777 135.802 752.023 134.994 751.219 134.237C750.36 133.443 749.428 132.612 748.622 131.781C747.817 130.95 746.831 129.975 746.026 129.126C745.179 128.19 744.424 127.174 743.769 126.092C743.084 124.964 742.548 123.749 742.175 122.48C741.752 121.107 741.547 119.675 741.566 118.236C741.543 117.126 741.757 116.024 742.193 115.004C742.55 114.147 743.18 113.435 743.984 112.981C744.894 112.53 745.921 112.378 746.921 112.548C748.334 112.768 749.687 113.278 750.897 114.047C752.592 115.034 754.147 116.249 755.518 117.658C756.897 119.11 758.099 120.723 759.1 122.462L758.061 124.359Z" fill="white"/>
<path d="M135.45 691.106C135.328 693.432 134.663 695.697 133.508 697.715C132.353 699.733 130.742 701.447 128.806 702.718C125.135 704.867 122.162 703.134 122.162 698.853C122.284 696.527 122.949 694.262 124.104 692.245C125.259 690.227 126.87 688.512 128.806 687.241C132.477 685.11 135.45 686.844 135.45 691.106Z" fill="#0B246E"/>
<path d="M129.988 687.693C130.58 689.943 130.635 692.302 130.149 694.577C129.664 696.853 128.651 698.98 127.194 700.786C124.347 703.964 120.98 703.224 119.69 699.16C119.104 696.907 119.052 694.546 119.537 692.269C120.022 689.992 121.032 687.861 122.484 686.049C125.332 682.889 128.699 683.611 129.988 687.693Z" fill="#0B246E"/>
<path d="M251.648 571.605C251.648 571.605 252.329 594.18 255.427 602.162C258.525 610.145 266.173 609.386 271.958 608.754C277.742 608.122 292.607 597.34 299.843 590.387C307.078 583.434 322.23 584.753 334.265 567.596C346.301 550.439 334.265 543.143 330.486 542.8C326.707 542.457 306.81 558.494 291.085 552.155L251.648 571.605Z" fill="#0B246E"/>
<path d="M101.888 457.848C101.888 457.848 229.96 415.353 254.299 432.907C277.062 449.324 273.355 498.717 291.121 552.101C291.591 553.482 291.527 554.991 290.942 556.327C288.202 562.575 278.19 579.624 251.326 575.199C241.567 549.023 233.197 522.341 226.252 495.267C226.252 495.267 126.496 560.101 103.75 543.288C81.0052 526.474 101.888 457.848 101.888 457.848Z" fill="#425CA3"/>
<path d="M49.5918 642.543L133.785 627.608L126.12 690.781L133.785 692.713L148.596 627.608L227.04 660.152L231.357 655.492L156.745 619.879L213.178 593.837L206.964 590.947L144.405 612.474L111.29 590.947L102.837 592.88L132.818 617.964L51.5081 636.277L49.5918 642.543Z" fill="#0B246E"/>
<path d="M60.248 633.875C60.1228 636.201 59.4561 638.464 58.3017 640.482C57.1473 642.499 55.5377 644.214 53.6035 645.487C50.0216 647.618 46.959 645.885 46.959 641.622C47.0814 639.296 47.7469 637.032 48.9016 635.014C50.0562 632.996 51.6673 631.281 53.6035 630.01C57.275 627.861 60.248 629.595 60.248 633.875Z" fill="#0B246E"/>
<path d="M63.2568 635.681C63.1317 638.004 62.4648 640.265 61.3103 642.28C60.1558 644.294 58.5462 646.006 56.6123 647.275C52.9409 649.424 49.95 647.69 49.95 643.41C50.0785 641.083 50.7486 638.819 51.9061 636.802C53.0635 634.785 54.6758 633.07 56.6123 631.798C60.2838 629.613 63.2568 631.347 63.2568 635.681Z" fill="#0B246E"/>
<path d="M234.276 653.307C234.15 655.635 233.481 657.9 232.323 659.918C231.166 661.935 229.552 663.649 227.613 664.919C223.942 667.05 220.969 665.335 220.969 661.055C221.091 658.728 221.757 656.464 222.912 654.446C224.066 652.428 225.677 650.713 227.613 649.442C231.285 647.311 234.276 649.045 234.276 653.307Z" fill="#0B246E"/>
<path d="M230.568 650.851C230.443 653.177 229.777 655.44 228.622 657.458C227.468 659.475 225.858 661.19 223.924 662.463C220.253 664.594 217.28 662.861 217.28 658.58C217.405 656.257 218.072 653.996 219.226 651.982C220.381 649.967 221.99 648.255 223.924 646.986C227.596 644.837 230.568 646.517 230.568 650.851Z" fill="#0B246E"/>
<path d="M150.763 583.759H135.665V621.016H150.763V583.759Z" fill="#0B246E"/>
<path d="M313.974 590.929C313.974 590.929 314.654 613.486 317.753 621.468C320.851 629.45 328.498 628.692 334.283 628.078C340.068 627.464 354.933 616.664 362.168 609.693C369.404 602.722 384.556 604.058 396.591 586.902C408.626 569.745 396.591 562.467 392.812 562.106C389.033 561.745 370.12 576.156 354.449 569.836L313.974 590.929Z" fill="#0B246E"/>
<path d="M164.536 473.542C164.536 473.542 292.607 431.029 316.947 448.583C339.996 465.198 335.913 515.62 354.449 569.835C354.449 569.835 346.712 596.329 313.974 590.929C304.218 564.758 295.848 538.082 288.9 511.015C288.9 511.015 189.126 575.831 166.38 559.036C143.635 542.24 164.536 473.542 164.536 473.542Z" fill="#4661AD"/>
<path d="M269.289 528.732C264.776 553.329 223.208 583.38 150.942 594.306C148.417 594.704 124.4 599.453 103.249 595.281C116.52 569.583 151.605 526.944 140.608 484.955C166.506 489.001 273.229 507.114 269.289 528.732Z" fill="#36E7F7"/>
<path d="M140.465 490.463L155.832 506.392C159.414 528.352 172.595 549.735 192.69 551.397L295.58 515.946V479.826L140.465 490.463Z" fill="#4661AD"/>
<path d="M175.192 329.353L121.857 302.101C116.38 299.265 110.302 297.808 104.144 297.857C92.8793 298.002 76.5278 301.794 70.1162 321.172C59.9256 351.982 92.933 477.244 92.933 477.244C92.933 477.244 126.066 518.582 152.268 516.614C178.469 514.645 216.169 492.414 216.169 473.812C216.169 460.557 205.961 398.125 200.05 363.432C198.84 356.187 195.96 349.329 191.643 343.41C187.325 337.491 181.691 332.676 175.192 329.353Z" fill="#0B246E"/>
<path d="M200.265 250.216C200.552 250.216 207.089 251.787 210.563 252.618C210.822 252.679 211.063 252.798 211.27 252.964C211.477 253.131 211.645 253.342 211.762 253.582C211.878 253.823 211.941 254.086 211.944 254.353C211.947 254.621 211.892 254.885 211.781 255.128L209.561 260.149C209.185 260.987 208.579 261.698 207.814 262.198C207.048 262.698 206.156 262.964 205.244 262.966H197.507" stroke="#0B246E" stroke-width="0.75" stroke-miterlimit="10"/>
<path d="M130.812 297.605L136.31 261.485L205.567 221.014V248.302C205.569 249.864 205.283 251.413 204.725 252.871L203.4 256.356C202.663 258.256 202.452 260.323 202.791 262.334L203.31 265.368C203.716 267.714 203.442 270.128 202.522 272.321L196.29 287.256C195.321 289.572 193.632 291.508 191.477 292.772C189.323 294.035 186.819 294.559 184.344 294.264L174.511 293.072L170.392 315.339L130.812 297.605Z" fill="#FF8B91"/>
<path d="M134.573 281.098L146.734 283.572C149.785 284.199 152.939 284.103 155.948 283.292C158.956 282.48 161.737 280.975 164.07 278.895L180.511 264.212V268.222L183.144 267.716C184.304 267.495 185.382 266.958 186.26 266.161C187.138 265.365 187.782 264.341 188.123 263.201L194.481 242.071C194.481 242.071 212.175 240.572 217.423 218.594C217.423 218.594 197.973 199.234 170.034 201.238C162.031 201.765 154.303 204.386 147.611 208.841C140.918 213.297 135.493 219.434 131.869 226.648C131.869 226.648 125.887 225.89 123.147 233.439C120.926 239.525 127.248 266.325 129.773 276.385C130.043 277.551 130.639 278.614 131.489 279.449C132.34 280.285 133.41 280.857 134.573 281.098Z" fill="#0B246E"/>
<path d="M179.669 273.296L181.872 261.81C181.872 261.81 179.58 256.212 174.207 258.433C168.834 260.655 171.144 274.687 174.207 275.138C175.193 275.213 176.184 275.089 177.122 274.773C178.06 274.456 178.926 273.954 179.669 273.296Z" fill="#FF8B91"/>
<path d="M181.89 261.81L210.725 260.077L212.534 255.471L179.777 259.047L181.89 261.81Z" fill="#36E7F7"/>
<path d="M160.524 534.908C164.482 575.994 123.218 607.147 85.608 590.893C50.5589 575.723 24.8586 542.006 17.2291 483.781C8.72199 418.947 20.2021 377.916 28.6554 357.96C30.6834 353.259 34.1814 349.357 38.615 346.85C43.0487 344.342 48.1744 343.366 53.2095 344.072C133.946 355.431 154.112 489.181 154.112 489.181C154.112 489.181 158.16 510.455 160.524 534.908Z" fill="#36E7F7"/>
<path d="M231.106 347.305C231.106 347.305 240.867 327.981 243.875 326.085C246.884 324.188 271.671 323.448 273.928 323.069C276.184 322.689 280.698 327.602 280.698 327.602C280.698 327.602 293.467 327.222 295.025 327.602C296.583 327.981 296.154 335.169 292.769 335.169C289.423 335.498 286.121 336.182 282.918 337.209L275.11 347.305C275.11 347.305 261.964 356.028 259.707 356.028C257.451 356.028 241.672 359.044 241.672 359.044L231.106 347.305Z" fill="#FF8B91"/>
<path d="M316.374 374.701C316.374 374.701 326.134 355.377 329.143 353.481C332.152 351.585 356.939 350.826 359.195 350.447C361.452 350.068 365.965 354.998 365.965 354.998L370.747 358.014C371.444 358.45 372.022 359.054 372.431 359.771C372.839 360.488 373.065 361.296 373.088 362.123C373.111 362.949 372.931 363.769 372.563 364.508C372.195 365.247 371.651 365.882 370.98 366.358C365.947 369.97 360.324 374.701 360.324 374.701C360.324 374.701 347.178 383.406 344.922 383.406C342.665 383.406 326.887 386.458 326.887 386.458L316.374 374.701Z" fill="#FF8B91"/>
<path d="M152.268 385.699L238.932 435.093C243.81 437.865 249.352 439.227 254.947 439.03C260.543 438.832 265.977 437.082 270.65 433.973L336.522 385.049C336.522 385.049 333.316 368.434 320.564 364.66C317.914 363.865 261.266 384.526 261.266 384.526C259.402 385.36 257.354 385.687 255.327 385.471C253.299 385.255 251.363 384.506 249.714 383.298L183.914 335.042L152.268 378.331" fill="#0B246E"/>
<path d="M169.747 354.456L233.434 339.593C246.49 339.593 248.424 358.411 248.424 358.411L204.42 389.799L169.747 354.456Z" fill="#0B246E"/>
<path d="M216.169 587.787C216.038 590.113 215.367 592.376 214.209 594.393C213.052 596.41 211.441 598.125 209.507 599.399C205.835 601.53 202.862 599.796 202.862 595.516C202.99 593.191 203.658 590.929 204.812 588.912C205.967 586.895 207.575 585.179 209.507 583.904C213.178 581.773 216.169 583.507 216.169 587.787Z" fill="#0B246E"/>
<path d="M211.153 592.591C213.75 588.056 213.751 583.155 211.155 581.644C208.56 580.133 204.351 582.584 201.754 587.119C199.158 591.654 199.157 596.555 201.753 598.066C204.348 599.577 208.557 597.126 211.153 592.591Z" fill="#0B246E"/>
<path d="M269.289 528.732C190.648 573.772 167.204 540.958 160.793 525.12C159.819 522.794 159.087 520.374 158.608 517.896C158.608 517.896 142.632 434.461 121.266 395.957C103.249 363.45 79.1963 341.887 41.7294 340.749" stroke="white" stroke-width="4" stroke-miterlimit="10" stroke-linecap="round"/>
<path d="M131.439 291.789L121.857 302.101L175.21 329.353L171.485 309.524L131.439 291.789Z" fill="#4661AD"/>
</svg>
